<?xml version="1.0" standalone="no"?>
<!DOCTYPE svg PUBLIC "-//W3C//DTD SVG 20010904//EN"
 "http://www.w3.org/TR/2001/REC-SVG-20010904/DTD/svg10.dtd">
<svg version="1.0" xmlns="http://www.w3.org/2000/svg"
 width="2500.000000pt" height="2500.000000pt" viewBox="0 0 2500.000000 2500.000000"
 preserveAspectRatio="xMidYMid meet">
<metadata>
Created by potrace 1.14, written by Peter Selinger 2001-2017
</metadata>
<g transform="translate(0.000000,2500.000000) scale(0.100000,-0.100000)"
fill="#000000" stroke="none">
<path d="M3500 12500 l0 -9000 128 0 127 0 4370 4370 4370 4370 4370 -4370
4370 -4370 133 0 132 0 0 233 0 232 -4265 4265 -4265 4265 4265 4265 4265
4265 0 238 0 237 -128 0 -127 0 -4375 -4375 -4375 -4375 -4375 4375 -4375
4375 -123 0 -122 0 0 -9000z"/>
</g>
</svg>
